<?xml version="1.0" encoding="UTF-8" standalone="no"?>
<svg width="664px" height="60px" viewBox="0 0 664 60" version="1.1" xmlns="http://www.w3.org/2000/svg" xmlns:xlink="http://www.w3.org/1999/xlink" xmlns:sketch="http://www.bohemiancoding.com/sketch/ns">
    <title>Untitled 2</title>
    <description>Created with Sketch (http://www.bohemiancoding.com/sketch)</description>
    <defs></defs>
    <g id="Page-1" stroke="none" stroke-width="1" fill="none" fill-rule="evenodd" sketch:type="MSPage">
        <path d="M0,0 L0,60 L112,60 L112,0 L0,0 Z M8,8 L8,52 L52,52 L52,8 L8,8 Z" id="Rectangle-1" fill="#00C655" sketch:type="MSShapeGroup"></path>
        <path d="M142.097656,43.234375 L137,49.0703125 C142.460965,53.7578359 148.988243,56.1015625 156.582031,56.1015625 C168.324277,55.9609368 174.324217,50.9922365 174.582031,41.1953125 C174.582031,37.5624818 173.445324,34.3750137 171.171875,31.6328125 C168.874989,28.8437361 165.324243,27.121097 160.519531,26.4648438 C158.082019,26.1601547 156.160163,25.8906262 154.753906,25.65625 C152.222644,25.1874977 150.382818,24.3437561 149.234375,23.125 C148.085932,21.9296815 147.511719,20.5937574 147.511719,19.1171875 C147.558594,16.6562377 148.414054,14.8046937 150.078125,13.5625 C151.671883,12.3671815 153.664051,11.7695312 156.054688,11.7695312 C160.671898,11.8632817 164.902325,13.1757686 168.746094,15.7070312 L173.070312,9.30859375 C168.359351,5.91013926 162.816438,4.1406257 156.441406,4 C151.144505,4.04687523 147.054702,5.42967391 144.171875,8.1484375 C141.195298,10.8906387 139.707031,14.4999776 139.707031,18.9765625 C139.707031,22.7031436 140.890613,25.8671745 143.257812,28.46875 C145.554699,31.0000127 148.906228,32.6289026 153.3125,33.3554688 C155.77345,33.707033 158.035146,34.0234361 160.097656,34.3046875 C164.597679,35.0781289 166.824219,37.3749809 166.777344,41.1953125 C166.683593,45.8593983 163.308627,48.2382808 156.652344,48.3320312 C151.027316,48.285156 146.175802,46.5859543 142.097656,43.234375 Z M191.457031,55.6796875 L199.261719,55.6796875 L199.261719,11.3476562 L213.289062,11.3476562 L213.289062,4.421875 L177.429688,4.421875 L177.429688,11.3476562 L191.457031,11.3476562 L191.457031,55.6796875 Z M243.664062,55.6796875 L251.855469,55.6796875 L233.222656,4.421875 L226.71875,4.421875 L208.085938,55.6796875 L216.3125,55.6796875 L220.25,44.21875 L239.691406,44.21875 L243.664062,55.6796875 Z M222.5,37.328125 L229.917969,14.9335938 L230.058594,14.9335938 L237.476562,37.328125 L222.5,37.328125 Z M257.339844,55.6796875 L265.109375,55.6796875 L265.109375,19.2578125 L265.25,19.2578125 L288.417969,55.6796875 L295.765625,55.6796875 L295.765625,4.421875 L287.996094,4.421875 L287.996094,40.84375 L287.855469,40.84375 L264.652344,4.421875 L257.339844,4.421875 L257.339844,55.6796875 Z M306.59375,55.6796875 L323.996094,55.6796875 C327.839863,55.6796875 331.085924,54.8359459 333.734375,53.1484375 C336.406263,51.5781171 338.49218,49.5859496 339.992188,47.171875 C340.55469,46.2578079 341.035154,45.3789105 341.433594,44.5351562 C341.808596,43.6679644 342.089843,42.6835993 342.277344,41.5820312 C342.675783,39.4023329 342.875,35.5586213 342.875,30.0507812 C342.875,24.8710679 342.746095,21.226573 342.488281,19.1171875 C342.160155,17.007802 341.375006,14.9921971 340.132812,13.0703125 C336.664045,7.35153391 331.460972,4.46875023 324.523438,4.421875 L306.59375,4.421875 L306.59375,55.6796875 Z M314.363281,11.7695313 L323.644531,11.7695313 C327.582051,11.6757808 330.628895,13.1171726 332.785156,16.09375 C333.839849,17.2890685 334.507811,18.8476466 334.789062,20.7695312 C335.000001,22.6914159 335.105469,25.878884 335.105469,30.3320312 C335.105469,34.9023666 335.000001,38.0195229 334.789062,39.6835938 C334.554686,41.3711022 334.003911,42.7656195 333.136719,43.8671875 C331.167959,46.8437649 328.003928,48.3320312 323.644531,48.3320312 L314.363281,48.3320312 L314.363281,11.7695313 Z M380.878906,55.6796875 L389.070312,55.6796875 L370.4375,4.421875 L363.933594,4.421875 L345.300781,55.6796875 L353.527344,55.6796875 L357.464844,44.21875 L376.90625,44.21875 L380.878906,55.6796875 Z M359.714844,37.328125 L367.132812,14.9335938 L367.273438,14.9335938 L374.691406,37.328125 L359.714844,37.328125 Z M394.554688,55.6796875 L402.324219,55.6796875 L402.324219,33.7773438 L412.238281,33.7773438 L422.820312,55.6796875 L432.066406,55.6796875 L420.183594,32.9335938 C426.699251,30.4257687 430.003906,25.6914411 430.097656,18.7304688 C429.957031,13.9960701 428.257829,10.3515753 425,7.796875 C422.304674,5.54686375 418.82424,4.421875 414.558594,4.421875 L394.554688,4.421875 L394.554688,55.6796875 Z M402.324219,11.3476562 L414.488281,11.3476562 C416.972669,11.3476562 418.871087,11.8749947 420.183594,12.9296875 C421.847665,14.125006 422.703125,16.0585804 422.75,18.7304688 C422.75,20.9570424 422.035163,22.8320236 420.605469,24.3554688 C419.152336,25.996102 416.972671,26.8398435 414.066406,26.8867188 L402.324219,26.8867188 L402.324219,11.3476562 Z M438.464844,55.6796875 L455.867188,55.6796875 C459.710957,55.6796875 462.957018,54.8359459 465.605469,53.1484375 C468.277357,51.5781171 470.363274,49.5859496 471.863281,47.171875 C472.425784,46.2578079 472.906248,45.3789105 473.304688,44.5351562 C473.679689,43.6679644 473.960937,42.6835993 474.148438,41.5820312 C474.546877,39.4023329 474.746094,35.5586213 474.746094,30.0507812 C474.746094,24.8710679 474.617189,21.226573 474.359375,19.1171875 C474.031248,17.007802 473.2461,14.9921971 472.003906,13.0703125 C468.535139,7.35153391 463.332066,4.46875023 456.394531,4.421875 L438.464844,4.421875 L438.464844,55.6796875 Z M446.234375,11.7695313 L455.515625,11.7695313 C459.453145,11.6757808 462.499989,13.1171726 464.65625,16.09375 C465.710943,17.2890685 466.378905,18.8476466 466.660156,20.7695312 C466.871095,22.6914159 466.976562,25.878884 466.976562,30.3320312 C466.976562,34.9023666 466.871095,38.0195229 466.660156,39.6835938 C466.42578,41.3711022 465.875004,42.7656195 465.007812,43.8671875 C463.039053,46.8437649 459.875022,48.3320312 455.515625,48.3320312 L446.234375,48.3320312 L446.234375,11.7695313 Z M527.410156,41.3359375 C525.253895,46.0000233 521.996116,48.3320312 517.636719,48.3320312 C515.808585,48.3320312 514.238288,47.9453164 512.925781,47.171875 C511.589837,46.5156217 510.511723,45.6601615 509.691406,44.6054688 C508.683589,43.5039007 508.015627,42.0625089 507.6875,40.28125 C507.312498,38.4999911 507.125,35.0898689 507.125,30.0507812 C507.125,25.0116936 507.312498,21.5781341 507.6875,19.75 C508.015627,18.0156163 508.683589,16.5976618 509.691406,15.4960938 C510.511723,14.441401 511.589837,13.5625035 512.925781,12.859375 C514.238288,12.1796841 515.808585,11.8164065 517.636719,11.7695312 C520.121106,11.8164065 522.23046,12.5312431 523.964844,13.9140625 C525.628915,15.3671948 526.777341,17.1249897 527.410156,19.1875 L535.636719,19.1875 C534.816402,14.8984161 532.847672,11.3007958 529.730469,8.39453125 C526.613266,5.51170434 522.582056,4.04687523 517.636719,4 C513.605449,4.04687523 510.242201,5.00780312 507.546875,6.8828125 C504.804674,8.73438426 502.812506,10.8437382 501.570312,13.2109375 C500.796871,14.4531312 500.222658,16.0820212 499.847656,18.0976562 C499.496092,20.1132913 499.320312,24.0976265 499.320312,30.0507812 C499.320312,35.9101855 499.496092,39.8710834 499.847656,41.9335938 C500.035157,43.0351618 500.26953,43.9492151 500.550781,44.6757812 C500.85547,45.3789098 501.195311,46.1171836 501.570312,46.890625 C502.812506,49.2578243 504.804674,51.343741 507.546875,53.1484375 C510.242201,55.0234469 513.605449,56.007812 517.636719,56.1015625 C522.089866,56.1015625 525.945296,54.8359502 529.203125,52.3046875 C532.367203,49.7499872 534.511713,46.0937738 535.636719,41.3359375 L527.410156,41.3359375 Z M539.363281,30.0507812 C539.363281,35.9101855 539.539061,39.8710834 539.890625,41.9335938 C540.078126,43.0351618 540.312499,43.9492151 540.59375,44.6757812 C540.898439,45.3789098 541.238279,46.1171836 541.613281,46.890625 C542.855475,49.2578243 544.847643,51.343741 547.589844,53.1484375 C550.28517,55.0234469 553.648417,56.007812 557.679688,56.1015625 C561.757833,56.007812 565.156236,55.0234469 567.875,53.1484375 C570.570326,51.343741 572.515619,49.2578243 573.710938,46.890625 C574.578129,45.6484313 575.17578,43.9961041 575.503906,41.9335938 C575.808595,39.8710834 575.960938,35.9101855 575.960938,30.0507812 C575.960938,24.0976265 575.808595,20.1132913 575.503906,18.0976562 C575.17578,16.0820212 574.578129,14.4531312 573.710938,13.2109375 C572.515619,10.8437382 570.570326,8.73438426 567.875,6.8828125 C565.156236,5.00780312 561.757833,4.04687523 557.679688,4 C553.648417,4.04687523 550.28517,5.00780312 547.589844,6.8828125 C544.847643,8.73438426 542.855475,10.8437382 541.613281,13.2109375 C540.83984,14.4531312 540.265627,16.0820212 539.890625,18.0976562 C539.539061,20.1132913 539.363281,24.0976265 539.363281,30.0507812 Z M547.167969,30.0507812 C547.167969,25.0116936 547.355467,21.5781341 547.730469,19.75 C548.058595,18.0156163 548.726557,16.5976618 549.734375,15.4960938 C550.554692,14.441401 551.632806,13.5625035 552.96875,12.859375 C554.281257,12.1796841 555.851553,11.8164065 557.679688,11.7695312 C559.531259,11.8164065 561.136712,12.1796841 562.496094,12.859375 C563.785163,13.5625035 564.816402,14.441401 565.589844,15.4960938 C566.597661,16.5976618 567.289061,18.0156163 567.664062,19.75 C568.015627,21.5781341 568.191406,25.0116936 568.191406,30.0507812 C568.191406,35.0898689 568.015627,38.4999911 567.664062,40.28125 C567.289061,42.0625089 566.597661,43.5039007 565.589844,44.6054688 C564.816402,45.6601615 563.785163,46.5156217 562.496094,47.171875 C561.136712,47.9453164 559.531259,48.3320312 557.679688,48.3320312 C555.851553,48.3320312 554.281257,47.9453164 552.96875,47.171875 C551.632806,46.5156217 550.554692,45.6601615 549.734375,44.6054688 C548.726557,43.5039007 548.058595,42.0625089 547.730469,40.28125 C547.355467,38.4999911 547.167969,35.0898689 547.167969,30.0507812 Z M585.03125,55.6796875 L602.433594,55.6796875 C606.277363,55.6796875 609.523424,54.8359459 612.171875,53.1484375 C614.843763,51.5781171 616.92968,49.5859496 618.429688,47.171875 C618.99219,46.2578079 619.472654,45.3789105 619.871094,44.5351562 C620.246096,43.6679644 620.527343,42.6835993 620.714844,41.5820312 C621.113283,39.4023329 621.3125,35.5586213 621.3125,30.0507812 C621.3125,24.8710679 621.183595,21.226573 620.925781,19.1171875 C620.597655,17.007802 619.812506,14.9921971 618.570312,13.0703125 C615.101545,7.35153391 609.898472,4.46875023 602.960938,4.421875 L585.03125,4.421875 L585.03125,55.6796875 Z M592.800781,11.7695313 L602.082031,11.7695313 C606.019551,11.6757808 609.066395,13.1171726 611.222656,16.09375 C612.277349,17.2890685 612.945311,18.8476466 613.226562,20.7695312 C613.437501,22.6914159 613.542969,25.878884 613.542969,30.3320312 C613.542969,34.9023666 613.437501,38.0195229 613.226562,39.6835938 C612.992186,41.3711022 612.441411,42.7656195 611.574219,43.8671875 C609.605459,46.8437649 606.441428,48.3320312 602.082031,48.3320312 L592.800781,48.3320312 L592.800781,11.7695313 Z M630.382812,55.6796875 L663.113281,55.6796875 L663.113281,48.3320312 L638.152344,48.3320312 L638.152344,33.2851562 L659.457031,33.2851562 L659.457031,26.3945312 L638.152344,26.3945312 L638.152344,11.7695312 L663.113281,11.7695312 L663.113281,4.421875 L630.382812,4.421875 L630.382812,55.6796875 Z" id="STANDARD-CODE" fill="#00C655" sketch:type="MSShapeGroup"></path>
    </g>
</svg>