<?xml version="1.0" encoding="UTF-8" standalone="no"?>
<svg width="657px" height="60px" viewBox="0 0 657 60" version="1.1" xmlns="http://www.w3.org/2000/svg" xmlns:xlink="http://www.w3.org/1999/xlink" xmlns:sketch="http://www.bohemiancoding.com/sketch/ns">
    <title>Untitled 2</title>
    <description>Created with Sketch (http://www.bohemiancoding.com/sketch)</description>
    <defs></defs>
    <g id="Page-1" stroke="none" stroke-width="1" fill="none" fill-rule="evenodd" sketch:type="MSPage">
        <g id="logo" sketch:type="MSLayerGroup" fill="#00C655">
            <path d="M0,0 L0,60 L112,60 L112,0 L0,0 L0,0 Z M8,8 L8,52 L52,52 L52,8 L8,8 L8,8 Z" id="Rectangle-1" sketch:type="MSShapeGroup"></path>
            <path d="M142.462891,42.7275391 L137.436035,48.4824219 C142.821153,53.1048408 149.257775,55.4160156 156.746094,55.4160156 C168.325253,55.2773431 174.241861,50.3776525 174.496094,40.7167969 C174.496094,37.1344222 173.375174,33.9912245 171.133301,31.2871094 C168.868315,28.5367701 165.366886,26.8380566 160.628906,26.190918 C158.225248,25.8904607 156.330085,25.6246756 154.943359,25.3935547 C152.447253,24.9313128 150.632981,24.0992899 149.500488,22.8974609 C148.367996,21.7187441 147.801758,20.4013745 147.801758,18.9453125 C147.847982,16.5185426 148.691561,14.6927145 150.33252,13.4677734 C151.904142,12.2890566 153.868641,11.699707 156.226074,11.699707 C160.779157,11.7921554 164.950827,13.0864133 168.741211,15.5825195 L173.005371,9.27294922 C168.35984,5.92169548 162.893912,4.17675851 156.607422,4.03808594 C151.384088,4.08431013 147.351088,5.44790326 144.508301,8.12890625 C141.573065,10.8330213 140.105469,14.3922305 140.105469,18.8066406 C140.105469,22.4814637 141.272612,25.6015497 143.606934,28.1669922 C145.871919,30.6630984 149.176899,32.2693649 153.521973,32.9858398 C155.948743,33.3325213 158.179026,33.6445299 160.212891,33.921875 C164.650413,34.6845741 166.846029,36.9495254 166.799805,40.7167969 C166.707356,45.3161037 163.379265,47.6619462 156.81543,47.7543945 C151.268527,47.7081703 146.484395,46.0325686 142.462891,42.7275391 Z M191.136719,55 L198.833008,55 L198.833008,11.2836914 L212.665527,11.2836914 L212.665527,4.45410156 L177.304199,4.45410156 L177.304199,11.2836914 L191.136719,11.2836914 L191.136719,55 Z M242.618652,55 L250.696289,55 L232.322266,4.45410156 L225.908691,4.45410156 L207.534668,55 L215.646973,55 L219.529785,43.6982422 L238.701172,43.6982422 L242.618652,55 Z M221.748535,36.9033203 L229.063477,14.8198242 L229.202148,14.8198242 L236.51709,36.9033203 L221.748535,36.9033203 Z M256.104492,55 L263.766113,55 L263.766113,19.0839844 L263.904785,19.0839844 L286.750977,55 L293.996582,55 L293.996582,4.45410156 L286.334961,4.45410156 L286.334961,40.3701172 L286.196289,40.3701172 L263.31543,4.45410156 L256.104492,4.45410156 L256.104492,55 Z M304.674316,55 L321.834961,55 C325.625344,55 328.826322,54.1679771 331.437988,52.5039062 C334.072767,50.9553959 336.129713,48.9908973 337.608887,46.6103516 C338.163577,45.7089799 338.637368,44.8422893 339.030273,44.0102539 C339.400067,43.1551064 339.677408,42.184413 339.862305,41.0981445 C340.25521,38.9487197 340.45166,35.158393 340.45166,29.7270508 C340.45166,24.6192778 340.324546,21.025401 340.070312,18.9453125 C339.746743,16.865224 338.9725,14.8776136 337.747559,12.9824219 C334.326969,7.34307076 329.196161,4.50032575 322.35498,4.45410156 L304.674316,4.45410156 L304.674316,55 Z M312.335938,11.699707 L321.488281,11.699707 C325.371113,11.6072587 328.37564,13.0286312 330.501953,15.9638672 C331.541997,17.142584 332.200682,18.6795153 332.478027,20.574707 C332.686036,22.4698988 332.790039,25.6130965 332.790039,30.0043945 C332.790039,34.511253 332.686036,37.5851155 332.478027,39.2260742 C332.246906,40.890145 331.70378,42.265294 330.848633,43.3515625 C328.907217,46.2867985 325.787131,47.7543945 321.488281,47.7543945 L312.335938,47.7543945 L312.335938,11.699707 Z M377.927734,55 L386.005371,55 L367.631348,4.45410156 L361.217773,4.45410156 L342.84375,55 L350.956055,55 L354.838867,43.6982422 L374.010254,43.6982422 L377.927734,55 Z M357.057617,36.9033203 L364.372559,14.8198242 L364.51123,14.8198242 L371.826172,36.9033203 L357.057617,36.9033203 Z M391.413574,55 L399.075195,55 L399.075195,33.4018555 L408.851562,33.4018555 L419.286621,55 L428.404297,55 L416.686523,32.5698242 C423.111686,30.0968301 426.370442,25.428257 426.462891,18.5639648 C426.324218,13.8953217 424.648616,10.3014449 421.436035,7.78222656 C418.778144,5.56346547 415.34605,4.45410156 411.139648,4.45410156 L391.413574,4.45410156 L391.413574,55 Z M399.075195,11.2836914 L411.070312,11.2836914 C413.520195,11.2836914 415.392246,11.8037057 416.686523,12.84375 C418.327482,14.0224668 419.171061,15.929186 419.217285,18.5639648 C419.217285,20.7596138 418.512377,22.6085537 417.102539,24.1108398 C415.669589,25.7286865 413.520197,26.5607094 410.654297,26.6069336 L399.075195,26.6069336 L399.075195,11.2836914 Z M434.713867,55 L451.874512,55 C455.664895,55 458.865872,54.1679771 461.477539,52.5039062 C464.112318,50.9553959 466.169263,48.9908973 467.648438,46.6103516 C468.203128,45.7089799 468.676919,44.8422893 469.069824,44.0102539 C469.439618,43.1551064 469.716959,42.184413 469.901855,41.0981445 C470.294761,38.9487197 470.491211,35.158393 470.491211,29.7270508 C470.491211,24.6192778 470.364096,21.025401 470.109863,18.9453125 C469.786294,16.865224 469.01205,14.8776136 467.787109,12.9824219 C464.366519,7.34307076 459.235711,4.50032575 452.394531,4.45410156 L434.713867,4.45410156 L434.713867,55 Z M442.375488,11.699707 L451.527832,11.699707 C455.410664,11.6072587 458.415191,13.0286312 460.541504,15.9638672 C461.581548,17.142584 462.240233,18.6795153 462.517578,20.574707 C462.725587,22.4698988 462.82959,25.6130965 462.82959,30.0043945 C462.82959,34.511253 462.725587,37.5851155 462.517578,39.2260742 C462.286457,40.890145 461.743331,42.265294 460.888184,43.3515625 C458.946768,46.2867985 455.826682,47.7543945 451.527832,47.7543945 L442.375488,47.7543945 L442.375488,11.699707 Z M522.423828,40.8554688 C520.297515,45.4547756 517.084982,47.7543945 512.786133,47.7543945 C510.983389,47.7543945 509.434902,47.3730507 508.140625,46.6103516 C506.823236,45.9632129 505.760095,45.1196341 504.951172,44.0795898 C503.957352,42.9933214 503.298667,41.5719489 502.975098,39.8154297 C502.605304,38.0589105 502.42041,34.6961511 502.42041,29.7270508 C502.42041,24.7579504 502.605304,21.3720793 502.975098,19.5693359 C503.298667,17.8590409 503.957352,16.4607802 504.951172,15.3745117 C505.760095,14.3344675 506.823236,13.4677769 508.140625,12.7744141 C509.434902,12.1041633 510.983389,11.7459312 512.786133,11.699707 C515.236015,11.7459312 517.316072,12.4508395 519.026367,13.8144531 C520.667326,15.247403 521.799802,16.9807841 522.423828,19.0146484 L530.536133,19.0146484 C529.727209,14.7851351 527.785823,11.2374818 524.711914,8.37158203 C521.638005,5.52879438 517.662785,4.08431013 512.786133,4.03808594 C508.810853,4.08431013 505.494317,5.0318918 502.836426,6.88085938 C500.132311,8.70671486 498.167812,10.7867722 496.942871,13.1210938 C496.180172,14.3460348 495.613934,15.9523013 495.244141,17.9399414 C494.897459,19.9275816 494.724121,23.8565787 494.724121,29.7270508 C494.724121,35.5050745 494.897459,39.4109599 495.244141,41.4448242 C495.429037,42.5310927 495.660155,43.4324508 495.9375,44.1489258 C496.237957,44.8422886 496.573078,45.5703087 496.942871,46.3330078 C498.167812,48.6673294 500.132311,50.724275 502.836426,52.5039062 C505.494317,54.3528738 508.810853,55.3235672 512.786133,55.4160156 C517.177431,55.4160156 520.979313,54.1679812 524.191895,51.671875 C527.312027,49.1526567 529.426752,45.547224 530.536133,40.8554688 L522.423828,40.8554688 Z M534.210938,29.7270508 C534.210938,35.5050745 534.384276,39.4109599 534.730957,41.4448242 C534.915854,42.5310927 535.146971,43.4324508 535.424316,44.1489258 C535.724774,44.8422886 536.059894,45.5703087 536.429688,46.3330078 C537.654629,48.6673294 539.619127,50.724275 542.323242,52.5039062 C544.981133,54.3528738 548.297669,55.3235672 552.272949,55.4160156 C556.294454,55.3235672 559.645657,54.3528738 562.32666,52.5039062 C564.984551,50.724275 566.902826,48.6673294 568.081543,46.3330078 C568.93669,45.1080668 569.52604,43.4786886 569.849609,41.4448242 C570.150067,39.4109599 570.300293,35.5050745 570.300293,29.7270508 C570.300293,23.8565787 570.150067,19.9275816 569.849609,17.9399414 C569.52604,15.9523013 568.93669,14.3460348 568.081543,13.1210938 C566.902826,10.7867722 564.984551,8.70671486 562.32666,6.88085938 C559.645657,5.0318918 556.294454,4.08431013 552.272949,4.03808594 C548.297669,4.08431013 544.981133,5.0318918 542.323242,6.88085938 C539.619127,8.70671486 537.654629,10.7867722 536.429688,13.1210938 C535.666988,14.3460348 535.100751,15.9523013 534.730957,17.9399414 C534.384276,19.9275816 534.210938,23.8565787 534.210938,29.7270508 Z M541.907227,29.7270508 C541.907227,24.7579504 542.092121,21.3720793 542.461914,19.5693359 C542.785483,17.8590409 543.444168,16.4607802 544.437988,15.3745117 C545.246912,14.3344675 546.310052,13.4677769 547.627441,12.7744141 C548.921719,12.1041633 550.470206,11.7459312 552.272949,11.699707 C554.098805,11.7459312 555.681959,12.1041633 557.022461,12.7744141 C558.293626,13.4677769 559.310543,14.3344675 560.073242,15.3745117 C561.067062,16.4607802 561.748859,17.8590409 562.118652,19.5693359 C562.465334,21.3720793 562.638672,24.7579504 562.638672,29.7270508 C562.638672,34.6961511 562.465334,38.0589105 562.118652,39.8154297 C561.748859,41.5719489 561.067062,42.9933214 560.073242,44.0795898 C559.310543,45.1196341 558.293626,45.9632129 557.022461,46.6103516 C555.681959,47.3730507 554.098805,47.7543945 552.272949,47.7543945 C550.470206,47.7543945 548.921719,47.3730507 547.627441,46.6103516 C546.310052,45.9632129 545.246912,45.1196341 544.437988,44.0795898 C543.444168,42.9933214 542.785483,41.5719489 542.461914,39.8154297 C542.092121,38.0589105 541.907227,34.6961511 541.907227,29.7270508 Z M579.244629,55 L596.405273,55 C600.195657,55 603.396634,54.1679771 606.008301,52.5039062 C608.64308,50.9553959 610.700025,48.9908973 612.179199,46.6103516 C612.733889,45.7089799 613.20768,44.8422893 613.600586,44.0102539 C613.970379,43.1551064 614.24772,42.184413 614.432617,41.0981445 C614.825523,38.9487197 615.021973,35.158393 615.021973,29.7270508 C615.021973,24.6192778 614.894858,21.025401 614.640625,18.9453125 C614.317056,16.865224 613.542812,14.8776136 612.317871,12.9824219 C608.897281,7.34307076 603.766473,4.50032575 596.925293,4.45410156 L579.244629,4.45410156 L579.244629,55 Z M586.90625,11.699707 L596.058594,11.699707 C599.941426,11.6072587 602.945953,13.0286312 605.072266,15.9638672 C606.11231,17.142584 606.770995,18.6795153 607.04834,20.574707 C607.256349,22.4698988 607.360352,25.6130965 607.360352,30.0043945 C607.360352,34.511253 607.256349,37.5851155 607.04834,39.2260742 C606.817219,40.890145 606.274093,42.265294 605.418945,43.3515625 C603.477529,46.2867985 600.357443,47.7543945 596.058594,47.7543945 L586.90625,47.7543945 L586.90625,11.699707 Z M623.966309,55 L656.242188,55 L656.242188,47.7543945 L631.62793,47.7543945 L631.62793,32.9165039 L652.636719,32.9165039 L652.636719,26.121582 L631.62793,26.121582 L631.62793,11.699707 L656.242188,11.699707 L656.242188,4.45410156 L623.966309,4.45410156 L623.966309,55 Z" id="STANDARD-CODE" sketch:type="MSShapeGroup"></path>
        </g>
    </g>
</svg>